Simulation
nRows=42
nColumns=15
endheader
time  TH_x TH_y TH_z SC_y  SC_z  SC_x  AC_y  AC_z  AC_x  GH_y  GH_z  GH_yy  EL_x  PS_y
1.6000000000000014  0.000000  0.000000  0.000000  -48.113457941200586  15.828526638407743  51.81654062167145  55.11919777707109  -9.26816623593168  1.567666743043934  72.1443542767023  62.80235163236509  -78.0483402131193  18.237556636909915  120.000000
1.6320000000000014  0.000000  0.000000  0.000000  -48.11468583721495  15.831530369932159  51.88759664092006  55.07121931884521  -9.267778689129516  1.5237989709757136  72.20931588285926  62.51762625713586  -77.9681596257914  18.265037306930054  120.000000
1.6640000000000015  0.000000  0.000000  0.000000  -48.04165200801399  15.771253373981105  51.754155905618745  55.08162553244725  -9.267379423835298  1.44699094858763  72.31919978561662  62.07015133296258  -77.77114440014984  18.30277854114132  120.000000
1.6960000000000015  0.000000  0.000000  0.000000  -47.89641059973297  15.646022731490856  51.42334019264493  55.143486613379714  -9.267032012112328  1.3302676719368887  72.47612736321001  61.46554423907429  -77.4798882451152  18.350452681233744  120.000000
1.7280000000000015  0.000000  0.000000  0.000000  -47.68000710388895  15.454266984987507  50.90104261738555  55.24853460157117  -9.266828666259201  1.1699145953083774  72.67288315721463  60.712445074653786  -77.1234032442439  18.407028384051497  120.000000
1.7600000000000016  0.000000  0.000000  0.000000  -47.3941807338867  15.19424864559015  50.191620661930436  55.38863933052816  -9.266883372593144  0.9659033170273267  72.89289577080919  59.82346167381914  -76.73371967460025  18.47069233886974  120.000000
1.7920000000000016  0.000000  0.000000  0.000000  -47.04058113718147  14.864655673817749  49.297461232797254  55.55539578737187  -9.267287841022558  0.7216635577471638  73.1113857078018  58.81498065061987  -76.33982570582694  18.53931897841866  120.000000
1.8240000000000016  0.000000  0.000000  0.000000  -46.619541654994606  14.465865438933127  48.22214657627503  55.738628731253044  -9.268000045330846  0.44408113075992073  73.29823691214031  57.7042076588062  -75.96034265087475  18.60939217759428  120.000000
1.8560000000000016  0.000000  0.000000  0.000000  -46.13202266567194  14.00115597076472  46.97569517242811  55.92609057082522  -9.26886409812559  0.14322874870798558  73.42207461289583  56.5064548109678  -75.59583031327519  18.674340791215375  120.000000
1.8880000000000017  0.000000  0.000000  0.000000  -45.582506550150974  13.476861547367575  45.57979103660513  56.104011319116964  -9.270195370629205  -0.17003255929415648  73.45538282608427  55.23337041529955  -75.22360554030487  18.725100995328095  120.000000
1.9200000000000017  0.000000  0.000000  0.000000  -44.981009513948564  12.902379827309664  44.067425167578634  56.257841714562026  -9.27164504742944  -0.48648852991904606  73.38005694507315  53.89299561260925  -74.7985100295055  18.752632086020498  120.000000
1.9520000000000017  0.000000  0.000000  0.000000  -44.34440701563005  12.289864503148328  42.480252200507  56.3740656317346  -9.273324540606646  -0.8008230290213638  73.18993326809591  52.49149493480663  -74.26072744644655  18.75099208629765  120.000000
1.9840000000000018  0.000000  0.000000  0.000000  -43.69527872482999  11.65175454007797  40.86293617367178  56.44273026932683  -9.275378004176188  -1.1121852903785783  72.88995501356237  51.03457048416234  -73.54908632757679  18.719651382044507  120.000000
2.016000000000002  0.000000  0.000000  0.000000  -43.05747567662916  10.998790731556772  39.25642828746455  56.458797714544694  -9.277939432174009  -1.423657421535188  72.49202480181556  49.52824828690092  -72.61446316700335  18.664858277265125  120.000000
2.048000000000002  0.000000  0.000000  0.000000  -42.44966282708987  10.339556855041655  37.69163706786211  56.42131263781131  -9.28115677543762  -1.739807134514407  72.00949971149518  47.97802021515163  -71.43131606272624  18.60021993797823  120.000000
2.080000000000002  0.000000  0.000000  0.000000  -41.88019437288594  9.680928785010986  36.185516475181885  56.33132225524516  -9.285145914416447  -2.064070770820861  71.45140916028507  46.388384611170615  -70.00183594064112  18.545305348006707  120.000000
2.112000000000002  0.000000  0.000000  0.000000  -41.3499197704578  9.032551476599249  34.739577864567316  56.18973368284837  -9.289985446486169  -2.392880895075316  70.82164961138773  44.76259757366325  -68.35341957529143  18.521120272858653  120.000000
2.144000000000002  0.000000  0.000000  0.000000  -40.85633044932553  8.410968698418474  33.33958562894098  55.993716639001434  -9.299022562167915  -2.7141280649048465  70.11753319999879  43.10624307485738  -66.52943840225547  18.548629191955403  120.000000
2.176000000000002  0.000000  0.000000  0.000000  -40.39373692753761  7.827842921351236  31.946334162198088  55.73956978889686  -9.289670316318967  -3.007181953864042  69.34005484265498  41.42421108931498  -64.57612021735079  18.646659622958  120.000000
2.208000000000002  0.000000  0.000000  0.000000  -39.953992398594316  7.278180020726177  30.483915840280396  55.43326120868354  -9.177405470402638  -3.238750065038935  68.50762595979639  39.71629768060039  -62.53488548548159  18.824499258727  120.000000
2.240000000000002  0.000000  0.000000  0.000000  -39.52885062094039  6.753135324887413  28.873390109669213  55.08546594906634  -8.873673104055943  -3.372843920521381  67.63466244847498  37.98378053935785  -60.43383123865571  19.08276758060292  120.000000
2.272000000000002  0.000000  0.000000  0.000000  -39.113933265526725  6.251939606929244  27.066505230740006  54.703808994252284  -8.343284420206686  -3.380184728952927  66.7118559656896  36.23437473051195  -58.284662753784694  19.41554641792471  120.000000
2.304000000000002  0.000000  0.000000  0.000000  -38.708786745899765  5.7760818629212825  25.043852693183506  54.29595327771402  -7.587899944569663  -3.2384997158199607  65.71470893025321  34.47734085634781  -56.08450032150363  19.80908416770534  120.000000
2.336000000000002  0.000000  0.000000  0.000000  -38.31324787486135  5.324028573554588  22.810893255368775  53.86979640725965  -6.628099022741013  -2.9365630295810132  64.61135311551843  32.71989290094446  -53.81708451797438  20.24602537031837  120.000000
2.368000000000002  0.000000  0.000000  0.000000  -37.928692482148946  4.891951341795705  20.392859629996977  53.432328325334126  -5.494687171859755  -2.4752634847682673  63.3689644478863  30.96776695198569  -51.45840719005889  20.709746131753324  120.000000
2.400000000000002  0.000000  0.000000  0.000000  -37.56070092516213  4.475365450255677  17.82920950280842  52.98893985780094  -4.222140798331161  -1.8668042896344066  61.95975031680629  29.226325934678545  -48.98210016619225  21.185883764513907  120.000000
2.432000000000002  0.000000  0.000000  0.000000  -37.21813429576434  4.070509308444712  15.168632866489554  52.54240878016186  -2.8448621742403937  -1.1337677552506424  60.36462472030981  27.501618965310474  -46.36530314316026  21.66169319798236  120.000000
2.464000000000002  0.000000  0.000000  0.000000  -36.91123745256898  3.67509710357941  12.463843898159894  52.0929921331289  -1.395346699071908  -0.30566582839572537  58.575711248650556  25.80097734693087  -43.59355310569321  22.125487574986963  120.000000
2.496000000000002  0.000000  0.000000  0.000000  -36.65025868043457  3.288597564185179  9.76708656186614  51.639319981885386  0.09524479149650641  0.584625080427324  56.59838342106061  24.134574202603158  -40.66463438397582  22.567105333549172  120.000000
2.5280000000000022  0.000000  0.000000  0.000000  -36.443569205417454  2.912322553838822  7.126935895924135  51.179557032271404  1.5961525806540704  1.5046695325528403  54.45081215866396  22.51496422800203  -37.59071451853281  22.976897425506053  120.000000
2.5600000000000023  0.000000  0.000000  0.000000  -36.2955960879696  2.54932643182033  4.585898937681458  50.711444282654675  3.076099605843533  2.4247735138730215  52.16247653570996  20.956767433327933  -34.39890198333056  23.34316777304612  120.000000
2.5920000000000023  0.000000  0.000000  0.000000  -36.207367146950354  2.203869529192196  2.179731566521142  50.23385684438656  4.503685932432113  3.3199224771434674  49.770539159712484  19.475242645602076  -31.128378294981918  23.651316202559915  120.000000
2.6240000000000023  0.000000  0.000000  0.000000  -36.1782629450366  1.8808224723188027  -0.06273478860570604  49.74812077536771  5.8488605912016105  4.169499808629589  47.31734010078252  18.086309270008954  -27.825533876302202  23.885574660703114  120.000000
2.6560000000000024  0.000000  0.000000  0.000000  -36.20586841260621  1.5861753343373963  -2.11864510844392  49.258310028198174  7.085049548496589  4.957579086113605  44.84581494726043  16.803488575017518  -24.53663204193308  24.032104027820246  120.000000
2.6880000000000024  0.000000  0.000000  0.000000  -36.28431654362721  1.3268258872907353  -3.9709442085190765  48.77014047715073  8.190972211961663  5.672155353331947  42.39602445197251  15.636188050819523  -21.30327449527748  24.081600299095218  120.000000
2.7200000000000024  0.000000  0.000000  0.000000  -36.404675556731576  1.1088109533188757  -5.6073285400754855  48.289799680656685  9.15268396836776  6.304292764982195  40.00077200353854  14.587785473125365  -18.158578081756854  24.031397841556885  120.000000
2.7520000000000024  0.000000  0.000000  0.000000  -36.55484933355852  0.9374431938334901  -7.020346463244618  47.82389373331749  9.962896500367505  6.847969847356738  37.68313762347699  13.655581526861098  -15.128267091042838  23.88560085828981  120.000000
2.7840000000000025  0.000000  0.000000  0.000000  -36.72009627291718  0.81804702311184  -8.207819570807027  47.379282255346595  10.619605560681702  7.301391162066954  35.455421511678054  12.831089043393641  -12.232056825078073  23.652745950690065  120.000000
2.8160000000000025  0.000000  0.000000  0.000000  -36.88603405984145  0.7537080529745416  -9.172428936531684  46.9650703115135  11.126389103703028  7.666753185564149  33.32069491856553  12.101488312358224  -9.486611573049652  23.343392358957455  120.000000
2.8480000000000025  0.000000  0.000000  0.000000  -37.04171742617112  0.7429060904470864  -9.922181667667004  46.5922766765468  11.492459944964143  7.950010537317321  31.275733391343557  11.452617414681969  -6.90599715517212  22.968528624514953  120.000000
2.8800000000000026  0.000000  0.000000  0.000000  -37.18127114193633  0.7797644897975812  -10.470092715334204  46.27430958769873  11.731823710799043  8.160870933597083  29.3141544647541  10.869239719327506  -4.501751242069096  22.538858728009505  120.000000
2.9120000000000026  0.000000  0.000000  0.000000  -37.30496917483104  0.8548763111559773  -10.835840546713586  46.02462969270849  11.863232654580667  8.312872891115354  27.429681752893842  10.3351947209105  -2.280981087058458  22.065011007593682  120.000000
